<svg width="148" height="148" viewBox="0 0 148 148" fill="none" xmlns="http://www.w3.org/2000/svg">
<circle cx="74" cy="74" r="74" fill="#FF4141"/>
<circle cx="74" cy="74" r="69" stroke="white" stroke-width="10"/>
<path fill-rule="evenodd" clip-rule="evenodd" d="M104.481 75.481L104.508 75.454L104.535 75.427L104.795 75.1668L105.066 74.8691C111.066 68.2783 110.88 58.0556 104.508 51.6832C98.1353 45.3108 87.9127 48.1245 81.3218 54.125L81.023 54.3971L74.6754 60.7447L74.3729 60.4515L74.2659 60.5489L67.7028 53.9858L67.606 53.892C61.0305 47.518 50.528 44.5809 44.0275 51.0814C37.5271 57.5819 37.4641 68.0843 43.8381 74.6598L43.932 74.7567L74.5685 105.393L104.481 75.481ZM36.6579 81.62C26.4881 71.1286 26.5876 54.3792 36.9565 44.0103C47.3254 33.6414 64.0748 36.5419 74.5662 46.7117L74.5685 46.7094L74.5897 46.7305C85.111 37.1515 101.412 34.4454 111.579 44.6121C121.746 54.7789 122.039 71.0799 112.46 81.6013L112.481 81.6224L111.579 82.5251L74.5685 119.535L36.6556 81.6224L36.6579 81.62Z" fill="white"/>
</svg>
