<svg width="200" height="200" viewBox="0 0 200 200" fill="none" xmlns="http://www.w3.org/2000/svg">
<circle cx="100" cy="100" r="95" fill="black"/>
<circle cx="100" cy="100" r="88.5329" stroke="white" stroke-width="12.9342"/>
<path d="M77.4232 86.2365C77.4232 83.7032 76.4232 81.7365 74.4232 80.3365C72.4232 78.8699 69.6565 78.1365 66.1232 78.1365C62.4565 78.1365 59.5898 78.7365 57.5232 79.9365C55.5232 81.0699 54.5232 82.6032 54.5232 84.5365C54.5232 86.2032 55.1565 87.6032 56.4232 88.7365C57.6898 89.8032 59.2898 90.6699 61.2232 91.3365C63.2232 92.0032 65.9232 92.7365 69.3232 93.5365C74.3232 94.7365 78.4232 95.9699 81.6232 97.2365C84.8898 98.5032 87.6565 100.47 89.9232 103.137C92.2565 105.803 93.4232 109.37 93.4232 113.837C93.4232 121.637 90.8898 127.37 85.8232 131.037C80.8232 134.637 73.9232 136.437 65.1232 136.437C57.1232 136.437 50.4898 134.703 45.2232 131.237C40.0232 127.703 37.4232 122.37 37.4232 115.237L37.5232 113.037H52.1232L52.0232 114.637C52.0232 117.57 53.1232 119.903 55.3232 121.637C57.5232 123.303 60.6232 124.137 64.6232 124.137C69.2898 124.137 72.6232 123.403 74.6232 121.937C76.6898 120.47 77.7232 118.603 77.7232 116.337C77.7232 114.603 77.0898 113.203 75.8232 112.137C74.6232 111.003 73.0565 110.137 71.1232 109.537C69.2565 108.87 66.6232 108.137 63.2232 107.337C58.1565 106.07 54.0232 104.803 50.8232 103.537C47.6232 102.27 44.8565 100.237 42.5232 97.4365C40.1898 94.6365 39.0232 90.8699 39.0232 86.1365C39.0232 81.7365 40.2232 78.0032 42.6232 74.9365C45.0232 71.8699 48.2232 69.6032 52.2232 68.1365C56.2898 66.6032 60.8232 65.8365 65.8232 65.8365C73.4898 65.8365 79.7565 67.5365 84.6232 70.9365C89.4898 74.2699 91.9232 79.2699 91.9232 85.9365V87.1365H77.4232V86.2365ZM142.6 66.8365C145.866 66.8365 148.866 67.6032 151.6 69.1365C154.333 70.6032 156.5 72.6365 158.1 75.2365C159.766 77.7699 160.6 80.5699 160.6 83.6365C160.6 88.3032 159.5 91.9032 157.3 94.4365C155.1 96.9699 152.3 98.7032 148.9 99.6365V100.137C152.566 100.87 155.7 102.57 158.3 105.237C160.9 107.903 162.2 111.87 162.2 117.137C162.2 120.47 161.333 123.537 159.6 126.337C157.933 129.137 155.633 131.37 152.7 133.037C149.833 134.637 146.666 135.437 143.2 135.437H108.6V66.8365H142.6ZM138.2 94.6365C140.2 94.6365 141.966 93.8699 143.5 92.3365C145.033 90.8032 145.8 88.8699 145.8 86.5365C145.8 83.7365 145.033 81.7365 143.5 80.5365C141.966 79.2699 140.2 78.6365 138.2 78.6365H123.2V94.6365H138.2ZM139.3 123.037C141.5 123.037 143.366 122.27 144.9 120.737C146.433 119.203 147.2 117.337 147.2 115.137V114.237C147.2 112.037 146.433 110.17 144.9 108.637C143.366 107.103 141.5 106.337 139.3 106.337H123.2V123.037H139.3Z" fill="white"/>
</svg>
