<svg width="148" height="148" viewBox="0 0 148 148" fill="none" xmlns="http://www.w3.org/2000/svg">
<circle cx="74" cy="74" r="74" fill="#FF4141"/>
<circle cx="74" cy="74" r="69" stroke="white" stroke-width="10"/>
<path fill-rule="evenodd" clip-rule="evenodd" d="M68.23 100.808V47.73H58.733V80.8276L36.579 47.73H28V100.808H37.497V67.2839L59.8687 100.808H68.23ZM79.1369 90.2698L79.1427 90.2814L79.1486 90.2929C81.0251 93.8893 83.6533 96.6847 87.0278 98.6356C90.403 100.587 94.2953 101.538 98.6555 101.538C103.016 101.538 106.908 100.587 110.283 98.6356C113.661 96.683 116.268 93.8834 118.096 90.2802C119.976 86.6228 120.888 82.365 120.888 77.554V70.984C120.888 66.1768 119.977 61.9417 118.095 58.3297C116.269 54.6822 113.664 51.8568 110.283 49.9024C106.908 47.9511 103.016 47 98.6555 47C94.2953 47 90.403 47.9511 87.0278 49.9024C83.6476 51.8566 81.0193 54.6808 79.1446 58.326L79.1408 58.3334C77.3092 61.9443 76.4235 66.1777 76.4235 70.984V77.554C76.4235 82.3611 77.3095 86.615 79.1369 90.2698ZM107.581 60.0493L107.586 60.0553L107.591 60.0612C109.608 62.4149 110.734 65.9767 110.734 70.984V77.554C110.734 82.604 109.587 86.1819 107.532 88.5331C105.488 90.825 102.598 92.041 98.6555 92.041C94.5568 92.041 91.6381 90.7956 89.6525 88.4827C87.6798 86.1284 86.5775 82.5635 86.5775 77.554V70.984C86.5775 65.9832 87.7242 62.4261 89.7834 60.0728C91.8306 57.733 94.7186 56.497 98.6555 56.497C102.759 56.497 105.646 57.7447 107.581 60.0493Z" fill="white"/>
</svg>
