<svg width="148" height="148" viewBox="0 0 148 148" fill="none" xmlns="http://www.w3.org/2000/svg">
<circle cx="74" cy="74" r="74" fill="#16AB59"/>
<circle cx="74" cy="74" r="69" stroke="white" stroke-width="10"/>
<path fill-rule="evenodd" clip-rule="evenodd" d="M32.7634 89.0813L32.7704 89.0951L32.7775 89.1089C34.5542 92.5223 37.0485 95.1842 40.2544 97.042C43.4614 98.9004 47.1507 99.8002 51.2633 99.8002C55.3759 99.8002 59.0652 98.9004 62.2722 97.042C65.4812 95.1824 67.9562 92.5159 69.6883 89.0953C71.4695 85.6216 72.3264 81.5909 72.3264 77.0597V70.9407C72.3264 66.4147 71.4714 62.4051 69.6884 58.9732C67.9588 55.5118 65.4853 52.8204 62.2722 50.9584C59.0652 49.1 55.3759 48.2002 51.2633 48.2002C47.1507 48.2002 43.4614 49.1 40.2544 50.9584C37.0417 52.8202 34.5472 55.5101 32.7726 58.9689L32.7681 58.9778C31.0321 62.4083 30.2002 66.4158 30.2002 70.9407V77.0597C30.2002 81.5855 31.0324 85.611 32.7634 89.0813ZM70.5264 70.9407C70.5264 70.9407 70.5264 70.9407 70.5264 70.9408V77.0597C70.5264 77.3288 70.5232 77.5957 70.5169 77.8604C70.5232 77.5957 70.5264 77.3288 70.5264 77.0597V70.9407ZM68.0846 59.7906C68.4916 60.5724 68.8477 61.3911 69.1529 62.2467C68.8477 61.3911 68.4916 60.5725 68.0846 59.7906C66.5019 56.6178 64.2636 54.1929 61.3696 52.5158C58.4756 50.8388 55.1069 50.0002 51.2633 50.0002C47.4197 50.0002 44.0509 50.8388 41.1569 52.5158C38.263 54.1929 36.002 56.6178 34.3742 59.7906C34.1683 60.1974 33.9759 60.6141 33.7968 61.0407C33.9759 60.6141 34.1683 60.1973 34.3742 59.7906C36.002 56.6178 38.263 54.1928 41.157 52.5158C44.0509 50.8387 47.4197 50.0002 51.2633 50.0002C55.1069 50.0002 58.4757 50.8387 61.3696 52.5158C64.2636 54.1928 66.5019 56.6178 68.0846 59.7906ZM59.2434 61.0141L59.2494 61.0213L59.2555 61.0284C61.0447 63.1207 62.0793 66.33 62.0793 70.9407V77.0597C62.0793 81.7086 61.0254 84.9308 59.2049 87.0202C57.397 89.0506 54.8333 90.1492 51.2633 90.1492C47.5459 90.1492 44.9599 89.0219 43.2094 86.9791C41.4606 84.886 40.4473 81.6728 40.4473 77.0597V70.9407C40.4473 66.3378 41.5009 63.1341 43.3269 61.0423C45.1382 58.9674 47.7004 57.8512 51.2633 57.8512C54.9865 57.8512 57.5414 58.9814 59.2434 61.0141ZM119.393 99.1203L100.613 71.3901L119.29 48.8801H106.95L89.3803 69.9777V48.8801H79.1332V99.1203H89.3803V84.0326L93.9208 79.2468L107.31 99.1203H119.393ZM80.9332 50.6801H87.5803V74.952L87.5803 74.9521V50.6801H80.9332L80.9332 50.6801ZM87.5803 97.3203V83.3146L87.5803 83.3147L87.5803 97.3203ZM60.5557 88.2098C60.5557 88.2098 60.5557 88.2099 60.5557 88.2099C60.5557 88.2099 60.5557 88.2099 60.5557 88.2099C60.5557 88.2099 60.5557 88.2098 60.5557 88.2098ZM59.797 88.9831C57.6519 90.9605 54.8073 91.9492 51.2633 91.9492C47.1484 91.9492 44.0057 90.6801 41.8352 88.1418C40.993 87.1359 40.3176 85.9484 39.8091 84.5795C40.3176 85.9485 40.9929 87.1359 41.8352 88.1419C44.0057 90.6801 47.1484 91.9493 51.2633 91.9493C54.8073 91.9493 57.6519 90.9605 59.797 88.9831ZM38.8466 80.4804C38.7137 79.4124 38.6473 78.2721 38.6473 77.0597V70.9407C38.6473 70.9407 38.6473 70.9407 38.6473 70.9408V77.0597C38.6473 78.2722 38.7137 79.4124 38.8466 80.4804Z" fill="white"/>
<path fill-rule="evenodd" clip-rule="evenodd" d="M32.7634 89.0813L32.7704 89.0951L32.7775 89.1089C34.5542 92.5223 37.0485 95.1842 40.2544 97.042C43.4614 98.9004 47.1507 99.8002 51.2633 99.8002C55.3759 99.8002 59.0652 98.9004 62.2722 97.042C65.4812 95.1824 67.9562 92.5159 69.6883 89.0953C71.4695 85.6216 72.3264 81.5909 72.3264 77.0597V70.9407C72.3264 66.4147 71.4714 62.4051 69.6884 58.9732C67.9588 55.5118 65.4853 52.8204 62.2722 50.9584C59.0652 49.1 55.3759 48.2002 51.2633 48.2002C47.1507 48.2002 43.4614 49.1 40.2544 50.9584C37.0417 52.8202 34.5472 55.5101 32.7726 58.9689L32.7681 58.9778C31.0321 62.4083 30.2002 66.4158 30.2002 70.9407V77.0597C30.2002 81.5855 31.0324 85.611 32.7634 89.0813ZM70.5264 70.9407C70.5264 70.9407 70.5264 70.9407 70.5264 70.9408V77.0597C70.5264 77.3288 70.5232 77.5957 70.5169 77.8604C70.5232 77.5957 70.5264 77.3288 70.5264 77.0597V70.9407ZM68.0846 59.7906C68.4916 60.5724 68.8477 61.3911 69.1529 62.2467C68.8477 61.3911 68.4916 60.5725 68.0846 59.7906C66.5019 56.6178 64.2636 54.1929 61.3696 52.5158C58.4756 50.8388 55.1069 50.0002 51.2633 50.0002C47.4197 50.0002 44.0509 50.8388 41.1569 52.5158C38.263 54.1929 36.002 56.6178 34.3742 59.7906C34.1683 60.1974 33.9759 60.6141 33.7968 61.0407C33.9759 60.6141 34.1683 60.1973 34.3742 59.7906C36.002 56.6178 38.263 54.1928 41.157 52.5158C44.0509 50.8387 47.4197 50.0002 51.2633 50.0002C55.1069 50.0002 58.4757 50.8387 61.3696 52.5158C64.2636 54.1928 66.5019 56.6178 68.0846 59.7906ZM59.2434 61.0141L59.2494 61.0213L59.2555 61.0284C61.0447 63.1207 62.0793 66.33 62.0793 70.9407V77.0597C62.0793 81.7086 61.0254 84.9308 59.2049 87.0202C57.397 89.0506 54.8333 90.1492 51.2633 90.1492C47.5459 90.1492 44.9599 89.0219 43.2094 86.9791C41.4606 84.886 40.4473 81.6728 40.4473 77.0597V70.9407C40.4473 66.3378 41.5009 63.1341 43.3269 61.0423C45.1382 58.9674 47.7004 57.8512 51.2633 57.8512C54.9865 57.8512 57.5414 58.9814 59.2434 61.0141ZM119.393 99.1203L100.613 71.3901L119.29 48.8801H106.95L89.3803 69.9777V48.8801H79.1332V99.1203H89.3803V84.0326L93.9208 79.2468L107.31 99.1203H119.393ZM80.9332 50.6801H87.5803V74.952L87.5803 74.9521V50.6801H80.9332L80.9332 50.6801ZM87.5803 97.3203V83.3146L87.5803 83.3147L87.5803 97.3203ZM60.5557 88.2098C60.5557 88.2098 60.5557 88.2099 60.5557 88.2099C60.5557 88.2099 60.5557 88.2099 60.5557 88.2099C60.5557 88.2099 60.5557 88.2098 60.5557 88.2098ZM59.797 88.9831C57.6519 90.9605 54.8073 91.9492 51.2633 91.9492C47.1484 91.9492 44.0057 90.6801 41.8352 88.1418C40.993 87.1359 40.3176 85.9484 39.8091 84.5795C40.3176 85.9485 40.9929 87.1359 41.8352 88.1419C44.0057 90.6801 47.1484 91.9493 51.2633 91.9493C54.8073 91.9493 57.6519 90.9605 59.797 88.9831ZM38.8466 80.4804C38.7137 79.4124 38.6473 78.2721 38.6473 77.0597V70.9407C38.6473 70.9407 38.6473 70.9407 38.6473 70.9408V77.0597C38.6473 78.2722 38.7137 79.4124 38.8466 80.4804Z" fill="url(#paint0_linear)"/>
<defs>
<linearGradient id="paint0_linear" x1="74.7967" y1="48.2002" x2="74.7967" y2="99.8002" gradientUnits="userSpaceOnUse">
<stop stop-color="white"/>
<stop offset="1" stop-color="white" stop-opacity="0"/>
</linearGradient>
</defs>
</svg>
