<svg width="150" height="149" viewBox="0 0 150 149" fill="none" xmlns="http://www.w3.org/2000/svg">
<circle cx="74.7383" cy="74.6111" r="74.2937" fill="#F131DE"/>
<circle cx="74.7383" cy="74.6111" r="69.2739" stroke="white" stroke-width="10.0397"/>
<path fill-rule="evenodd" clip-rule="evenodd" d="M69.7185 24.6605C71.3695 24.4966 73.0441 24.4127 74.7383 24.4127C76.4325 24.4127 78.1071 24.4966 79.7582 24.6605C105.125 27.1791 124.937 48.5815 124.937 74.6111C124.937 102.335 102.462 124.81 74.7383 124.81C47.0145 124.81 24.5399 102.335 24.5399 74.6111C24.5399 48.5815 44.3516 27.1791 69.7185 24.6605ZM34.5796 74.6111C34.5796 54.1321 49.9086 37.2333 69.7185 34.7631V67.5998L41.4783 97.1237C37.1236 90.7027 34.5796 82.954 34.5796 74.6111ZM48.132 104.692C54.0364 109.919 61.491 113.433 69.7185 114.459V82.1244L48.132 104.692ZM79.7582 81.7786V114.459C87.6392 113.476 94.811 110.21 100.591 105.343L79.7582 81.7786ZM107.437 97.9298C112.134 91.3559 114.897 83.3062 114.897 74.6111C114.897 54.1321 99.5681 37.2333 79.7582 34.7631V66.6207L107.437 97.9298Z" fill="white"/>
</svg>
