<svg id="Layer_2" data-name="Layer 2" xmlns="http://www.w3.org/2000/svg" viewBox="0 0 36.68 58.07"><defs><style>.cls-1{fill:#fff;}</style></defs><path class="cls-1" d="M52.93,52.39l0-.87,1.09-.4S57,46,57.71,45.2s-.87,3.34-.87,3.34l1.35-1.31.54.37v.83s1.49-1.85,2-1.7,0,2.39,0,2.39l0,.65,1.2-.1,1.67-.19L62.14,52a1.5,1.5,0,0,0,1.12-.37,1.74,1.74,0,0,1,1.38-.39c.29,0,1.71-1.46,1.71-1.46l6,4.25-1.81,2.39s.87-.25,1.16.08a5.33,5.33,0,0,1,.62,1,.46.46,0,0,1,.79-.22,2.91,2.91,0,0,1,.84,1.38l-.25.65,1.59-.83,1.6-.15-.69,1.38-1,1.42a1.58,1.58,0,0,1,.91-.15,4.56,4.56,0,0,0,1.16.07c.14,0,1.74-.54,1.74-.54l-5.59,5.8-1.12.4-1,1.74s.55,1.06.26,1.49.07,2.29-.73,2.36c0,0,1.74,1.11,1.31,2s-.73,2.42-1,2.74-.18,1.53-.22,1.85-.65,1.93-6.27,2a11,11,0,0,0,.87,2.83c.21.21,3.52,7.51,3.91,7.8s1.93.72,1.93,1.16.47,1.81.51,2.25.54,1.12.43,1.74a6.43,6.43,0,0,0-.07,1.3s.72.4.8.69.1,1.59.1,1.59-19,6.45-30.77,0c0,0,4.52-2.37,5-4.09s1.51-1.72,1.51-1.72l2.79-3.23s2.16-1.5,1.94-2.58S52.44,82,52.22,81.37s-.21-1.73-1.08-1.94-6.16.13-6.2-2.67a2,2,0,0,0-.47-1.45s-.25-.74-.11-1S44,73.83,44,73.5a2.88,2.88,0,0,1,.33-1.27c.18-.22.61-1,.21-1.16s-1.93-.44-2.22-1.38c0-.51,4-3.77,4-4.17s.36-.8.14-1a1.11,1.11,0,0,1-.18-1.16c.18-.58,1.34-4.61,1.56-4.79a4,4,0,0,0,.55-1s-1.85-1.85-1-3.45" transform="translate(-42.32 -45.1)"/></svg>