<svg width="148" height="148" viewBox="0 0 148 148" fill="none" xmlns="http://www.w3.org/2000/svg">
<circle cx="74" cy="74" r="74" fill="black"/>
<path fill-rule="evenodd" clip-rule="evenodd" d="M138 74C138 109.346 109.346 138 74 138C38.6538 138 10 109.346 10 74C10 38.6538 38.6538 10 74 10C109.346 10 138 38.6538 138 74ZM148 74C148 114.869 114.869 148 74 148C33.1309 148 0 114.869 0 74C0 33.1309 33.1309 0 74 0C114.869 0 148 33.1309 148 74ZM99.575 110.926C97.3964 99.3603 87.044 90.5 74.5 90.5C61.956 90.5 51.6036 99.3603 49.425 110.926L39.5978 109.074C42.6718 92.7562 57.1746 80.5 74.5 80.5C91.8254 80.5 106.328 92.7562 109.402 109.074L99.575 110.926ZM59 59.5C59 63.6421 55.6421 67 51.5 67C47.3579 67 44 63.6421 44 59.5C44 55.3579 47.3579 52 51.5 52C55.6421 52 59 55.3579 59 59.5ZM93.5 67C97.6421 67 101 63.6421 101 59.5C101 55.3579 97.6421 52 93.5 52C89.3579 52 86 55.3579 86 59.5C86 63.6421 89.3579 67 93.5 67Z" fill="white"/>
</svg>
