<svg width="347" height="286" viewBox="0 0 347 286" fill="none" xmlns="http://www.w3.org/2000/svg">
<circle cx="50.3096" cy="43.3096" r="3.30959" fill="#333333"/>
<circle cx="99.126" cy="43.3096" r="3.30959" fill="#333333"/>
<circle cx="147.942" cy="43.3096" r="3.30959" fill="#333333"/>
<circle cx="196.759" cy="43.3096" r="3.30959" fill="#333333"/>
<circle cx="245.575" cy="43.3096" r="3.30959" fill="#333333"/>
<circle cx="294.392" cy="43.3096" r="3.30959" fill="#333333"/>
<circle cx="343.31" cy="43.3096" r="3.30959" fill="#333333"/>
<circle cx="50.3096" cy="3.30959" r="3.30959" fill="#333333"/>
<circle cx="99.126" cy="3.30959" r="3.30959" fill="#333333"/>
<circle cx="147.942" cy="3.30959" r="3.30959" fill="#333333"/>
<circle cx="196.759" cy="3.30959" r="3.30959" fill="#333333"/>
<circle cx="245.575" cy="3.30959" r="3.30959" fill="#333333"/>
<circle cx="294.392" cy="3.30959" r="3.30959" fill="#333333"/>
<circle cx="343.31" cy="3.30959" r="3.30959" fill="#333333"/>
<circle cx="50.3096" cy="92.3096" r="3.30959" fill="#333333"/>
<circle cx="99.126" cy="92.1261" r="3.30959" fill="#333333"/>
<circle cx="147.942" cy="92.1261" r="3.30959" fill="#333333"/>
<circle cx="196.759" cy="92.1261" r="3.30959" fill="#333333"/>
<circle cx="245.575" cy="92.1261" r="3.30959" fill="#333333"/>
<circle cx="294.392" cy="92.1261" r="3.30959" fill="#333333"/>
<circle cx="343.31" cy="92.1261" r="3.30959" fill="#333333"/>
<circle cx="50.3096" cy="141.31" r="3.30959" fill="#333333"/>
<circle cx="99.126" cy="140.943" r="3.30959" fill="#333333"/>
<circle cx="147.942" cy="140.943" r="3.30959" fill="#333333"/>
<circle cx="196.759" cy="140.943" r="3.30959" fill="#333333"/>
<circle cx="245.575" cy="140.943" r="3.30959" fill="#333333"/>
<circle cx="294.392" cy="140.943" r="3.30959" fill="#333333"/>
<circle cx="343.31" cy="140.943" r="3.30959" fill="#333333"/>
<circle cx="50.3096" cy="189.31" r="3.30959" fill="#333333"/>
<circle cx="99.126" cy="189.759" r="3.30959" fill="#333333"/>
<circle cx="147.942" cy="189.759" r="3.30959" fill="#333333"/>
<circle cx="196.759" cy="189.759" r="3.30959" fill="#333333"/>
<circle cx="245.575" cy="189.759" r="3.30959" fill="#333333"/>
<circle cx="294.392" cy="189.759" r="3.30959" fill="#333333"/>
<circle cx="343.31" cy="189.759" r="3.30959" fill="#333333"/>
<circle cx="52.7918" cy="238.31" r="3.30959" fill="#333333"/>
<circle cx="101.608" cy="238.575" r="3.30959" fill="#333333"/>
<circle cx="150.425" cy="238.575" r="3.30959" fill="#333333"/>
<circle cx="199.241" cy="238.575" r="3.30959" fill="#333333"/>
<circle cx="248.058" cy="238.575" r="3.30959" fill="#333333"/>
<circle cx="296.874" cy="238.575" r="3.30959" fill="#333333"/>
<circle cx="343.31" cy="238.575" r="3.30959" fill="#333333"/>
<circle cx="52.7918" cy="282.31" r="3.30959" fill="#333333"/>
<circle cx="101.608" cy="282.575" r="3.30959" fill="#333333"/>
<circle cx="150.425" cy="282.575" r="3.30959" fill="#333333"/>
<circle cx="199.241" cy="282.575" r="3.30959" fill="#333333"/>
<circle cx="248.058" cy="282.575" r="3.30959" fill="#333333"/>
<circle cx="296.874" cy="282.575" r="3.30959" fill="#333333"/>
<circle cx="343.31" cy="282.575" r="3.30959" fill="#333333"/>
<circle cx="3.30964" cy="3.30959" r="3.30959" transform="rotate(90 3.30964 3.30959)" fill="#333333"/>
<circle cx="3.30958" cy="43.3096" r="3.30959" transform="rotate(90 3.30958 43.3096)" fill="#333333"/>
<circle cx="3.30958" cy="92.3096" r="3.30959" transform="rotate(90 3.30958 92.3096)" fill="#333333"/>
<circle cx="3.30958" cy="141.31" r="3.30959" transform="rotate(90 3.30958 141.31)" fill="#333333"/>
<circle cx="3.30958" cy="189.31" r="3.30959" transform="rotate(90 3.30958 189.31)" fill="#333333"/>
<circle cx="3.30958" cy="238.31" r="3.30959" transform="rotate(90 3.30958 238.31)" fill="#333333"/>
<circle cx="3.30958" cy="282.31" r="3.30959" transform="rotate(90 3.30958 282.31)" fill="#333333"/>
<rect x="79.0692" y="70.544" width="203.813" height="149.489" fill="#FFDB00" stroke="black" stroke-width="3.16166"/>
<rect x="70.9206" y="61.8521" width="203.813" height="150.032" fill="white"/>
<rect x="70.9206" y="61.8521" width="203.813" height="150.032" fill="url(#paint0_linear)"/>
<rect x="70.9206" y="61.8521" width="203.813" height="150.032" stroke="black" stroke-width="3.16166"/>
<rect x="72.5992" y="63.5308" width="200.456" height="13.0378" fill="white"/>
<rect x="72.5992" y="63.5308" width="200.456" height="13.0378" fill="url(#paint1_linear)"/>
<path d="M95.3236 118.863H90.4002L84.8722 99.1121H89.5077L92.9915 112.04H93.1354L96.648 99.1121H101.111L104.595 112.04H104.739L108.222 99.1121H112.426L106.869 118.863H102.003L98.7786 107.001H98.6059L95.3236 118.863ZM115.872 118.863V99.1121H129.778L129.289 102.654H120.248V106.972H128.684V110.514H120.248V115.322H129.375L129.864 118.863H115.872ZM86.7437 153.863V134.112H91.2064V150.178H99.3257L99.8151 153.863H86.7437ZM118.94 145.399C118.94 147.203 118.546 148.767 117.759 150.092C116.972 151.416 115.907 152.424 114.563 153.115C113.239 153.806 111.761 154.151 110.129 154.151C108.498 154.151 107.01 153.806 105.667 153.115C104.342 152.424 103.286 151.416 102.499 150.092C101.713 148.767 101.319 147.203 101.319 145.399V142.577C101.319 140.773 101.713 139.208 102.499 137.884C103.286 136.559 104.342 135.552 105.667 134.861C107.01 134.17 108.498 133.824 110.129 133.824C111.761 133.824 113.239 134.17 114.563 134.861C115.907 135.552 116.972 136.559 117.759 137.884C118.546 139.208 118.94 140.773 118.94 142.577V145.399ZM114.275 141.943C114.275 140.485 113.891 139.362 113.124 138.575C112.356 137.769 111.358 137.366 110.129 137.366C108.901 137.366 107.903 137.769 107.135 138.575C106.367 139.362 105.983 140.485 105.983 141.943V146.032C105.983 147.491 106.367 148.623 107.135 149.429C107.903 150.216 108.901 150.61 110.129 150.61C111.358 150.61 112.356 150.216 113.124 149.429C113.891 148.623 114.275 147.491 114.275 146.032V141.943ZM130.103 148.22L134.623 134.112H138.885L132.378 153.863H127.282L120.803 134.112H125.468L129.959 148.22H130.103ZM142.327 153.863V134.112H156.234L155.744 137.654H146.704V141.972H155.14V145.514H146.704V150.322H155.831L156.32 153.863H142.327ZM95.3236 188.863H90.4002L84.8722 169.112H89.5077L92.9915 182.04H93.1354L96.648 169.112H101.111L104.595 182.04H104.739L108.222 169.112H112.426L106.869 188.863H102.003L98.7786 177.001H98.6059L95.3236 188.863ZM115.872 188.863V169.112H129.778L129.289 172.654H120.248V176.972H128.684V180.514H120.248V185.322H129.375L129.864 188.863H115.872ZM144.02 169.112C144.961 169.112 145.824 169.333 146.611 169.774C147.398 170.197 148.022 170.782 148.483 171.531C148.963 172.26 149.203 173.066 149.203 173.949C149.203 175.293 148.886 176.329 148.253 177.059C147.619 177.788 146.813 178.287 145.834 178.556V178.7C146.89 178.911 147.792 179.4 148.54 180.168C149.289 180.936 149.663 182.078 149.663 183.594C149.663 184.554 149.414 185.437 148.915 186.243C148.435 187.049 147.773 187.692 146.928 188.172C146.103 188.633 145.191 188.863 144.193 188.863H134.231V169.112H144.02ZM142.753 177.116C143.329 177.116 143.838 176.896 144.279 176.454C144.721 176.013 144.941 175.456 144.941 174.784C144.941 173.978 144.721 173.402 144.279 173.057C143.838 172.692 143.329 172.51 142.753 172.51H138.435V177.116H142.753ZM143.07 185.293C143.703 185.293 144.241 185.072 144.682 184.631C145.124 184.189 145.345 183.652 145.345 183.019V182.759C145.345 182.126 145.124 181.589 144.682 181.147C144.241 180.706 143.703 180.485 143.07 180.485H138.435V185.293H143.07ZM164.391 174.698C164.391 173.968 164.103 173.402 163.527 172.999C162.952 172.577 162.155 172.366 161.138 172.366C160.082 172.366 159.257 172.538 158.662 172.884C158.086 173.21 157.798 173.652 157.798 174.208C157.798 174.688 157.98 175.091 158.345 175.418C158.71 175.725 159.17 175.974 159.727 176.166C160.303 176.358 161.08 176.569 162.059 176.8C163.499 177.145 164.679 177.5 165.6 177.865C166.541 178.23 167.338 178.796 167.99 179.564C168.662 180.331 168.998 181.358 168.998 182.644C168.998 184.89 168.268 186.541 166.81 187.596C165.37 188.633 163.383 189.151 160.85 189.151C158.546 189.151 156.637 188.652 155.12 187.654C153.623 186.637 152.875 185.101 152.875 183.047L152.903 182.414H157.107L157.078 182.875C157.078 183.719 157.395 184.391 158.028 184.89C158.662 185.37 159.554 185.61 160.706 185.61C162.049 185.61 163.009 185.399 163.585 184.976C164.18 184.554 164.478 184.017 164.478 183.364C164.478 182.865 164.295 182.462 163.931 182.155C163.585 181.828 163.134 181.579 162.577 181.406C162.04 181.214 161.282 181.003 160.303 180.773C158.844 180.408 157.654 180.043 156.733 179.679C155.811 179.314 155.015 178.729 154.343 177.922C153.671 177.116 153.335 176.032 153.335 174.669C153.335 173.402 153.681 172.327 154.372 171.444C155.063 170.561 155.984 169.909 157.136 169.486C158.307 169.045 159.612 168.824 161.051 168.824C163.259 168.824 165.063 169.314 166.464 170.293C167.865 171.252 168.566 172.692 168.566 174.611V174.957H164.391V174.698ZM173.367 169.112H182.466V172.654H180.162V185.322H182.466V188.863H173.367V185.322H175.7V172.654H173.367V169.112ZM195.938 172.682V188.863H191.533V172.682H185.919V169.112H201.524V172.682H195.938ZM204.969 188.863V169.112H218.875L218.386 172.654H209.345V176.972H217.781V180.514H209.345V185.322H218.472L218.961 188.863H204.969ZM233.779 174.698C233.779 173.968 233.491 173.402 232.916 172.999C232.34 172.577 231.543 172.366 230.526 172.366C229.47 172.366 228.645 172.538 228.05 172.884C227.474 173.21 227.186 173.652 227.186 174.208C227.186 174.688 227.368 175.091 227.733 175.418C228.098 175.725 228.558 175.974 229.115 176.166C229.691 176.358 230.468 176.569 231.447 176.8C232.887 177.145 234.067 177.5 234.989 177.865C235.929 178.23 236.726 178.796 237.378 179.564C238.05 180.331 238.386 181.358 238.386 182.644C238.386 184.89 237.657 186.541 236.198 187.596C234.758 188.633 232.772 189.151 230.238 189.151C227.935 189.151 226.025 188.652 224.508 187.654C223.011 186.637 222.263 185.101 222.263 183.047L222.291 182.414H226.495L226.466 182.875C226.466 183.719 226.783 184.391 227.416 184.89C228.05 185.37 228.942 185.61 230.094 185.61C231.438 185.61 232.397 185.399 232.973 184.976C233.568 184.554 233.866 184.017 233.866 183.364C233.866 182.865 233.683 182.462 233.319 182.155C232.973 181.828 232.522 181.579 231.965 181.406C231.428 181.214 230.67 181.003 229.691 180.773C228.232 180.408 227.042 180.043 226.121 179.679C225.199 179.314 224.403 178.729 223.731 177.922C223.059 177.116 222.723 176.032 222.723 174.669C222.723 173.402 223.069 172.327 223.76 171.444C224.451 170.561 225.372 169.909 226.524 169.486C227.695 169.045 229 168.824 230.439 168.824C232.647 168.824 234.451 169.314 235.852 170.293C237.254 171.252 237.954 172.692 237.954 174.611V174.957H233.779V174.698Z" fill="black"/>
<path d="M71.934 78.2178H273.886" stroke="black" stroke-width="3.16166"/>
<circle cx="80.322" cy="70.2583" r="3" fill="black"/>
<circle cx="89.9008" cy="70.2583" r="3" fill="black"/>
<circle cx="99.4796" cy="70.2583" r="3" fill="black"/>
<rect x="256.67" y="109.84" width="61.4191" height="68.7002" fill="#FFDB00" stroke="black" stroke-width="2.59389"/>
<rect x="251.423" y="104.593" width="61.1157" height="68.3968" fill="white"/>
<rect x="251.423" y="104.593" width="61.1157" height="68.3968" fill="url(#paint2_linear)"/>
<rect x="251.423" y="104.593" width="61.1157" height="68.3968" stroke="black" stroke-width="2.59389"/>
<path d="M251.34 112.204H312.925" stroke="black" stroke-width="2.59389"/>
<circle cx="255.405" cy="108.5" r="1.5" fill="black"/>
<circle cx="259.939" cy="108.5" r="1.5" fill="black"/>
<circle cx="264.474" cy="108.5" r="1.5" fill="black"/>
<circle cx="281.767" cy="141.914" r="22.5392" fill="white"/>
<circle cx="281.767" cy="141.914" r="22.5392" fill="url(#paint3_linear)"/>
<circle cx="282" cy="142" r="20" fill="#FFDB00"/>
<circle cx="281.767" cy="141.914" r="21.0162" stroke="black" stroke-width="3.04583"/>
<path fill-rule="evenodd" clip-rule="evenodd" d="M291.05 142.365L291.059 142.357L291.067 142.349L291.146 142.269L291.229 142.179C293.056 140.171 293 137.058 291.059 135.117C289.118 133.176 286.004 134.033 283.997 135.86L283.906 135.943L281.972 137.877L281.88 137.787L281.848 137.817L279.849 135.818L279.819 135.789C277.816 133.848 274.617 132.953 272.637 134.933C270.658 136.913 270.638 140.112 272.58 142.115L272.608 142.144L281.94 151.476L291.05 142.365ZM270.393 144.235C267.295 141.039 267.326 135.938 270.484 132.78C273.642 129.621 278.744 130.505 281.939 133.602L281.94 133.602L281.946 133.608C285.151 130.691 290.116 129.866 293.212 132.963C296.309 136.06 296.399 141.025 293.481 144.229L293.487 144.236L293.212 144.511L281.94 155.783L270.392 144.236L270.393 144.235Z" fill="black"/>
<defs>
<linearGradient id="paint0_linear" x1="172.827" y1="60.2712" x2="172.827" y2="213.465" gradientUnits="userSpaceOnUse">
<stop stop-color="white"/>
<stop offset="1" stop-color="white" stop-opacity="0"/>
</linearGradient>
<linearGradient id="paint1_linear" x1="172.827" y1="63.5308" x2="172.827" y2="76.5685" gradientUnits="userSpaceOnUse">
<stop stop-color="white"/>
<stop offset="1" stop-color="white" stop-opacity="0"/>
</linearGradient>
<linearGradient id="paint2_linear" x1="281.981" y1="103.296" x2="281.981" y2="174.287" gradientUnits="userSpaceOnUse">
<stop stop-color="white"/>
<stop offset="1" stop-color="white" stop-opacity="0"/>
</linearGradient>
<linearGradient id="paint3_linear" x1="281.767" y1="119.375" x2="281.767" y2="164.453" gradientUnits="userSpaceOnUse">
<stop stop-color="white"/>
<stop offset="1" stop-color="white" stop-opacity="0"/>
</linearGradient>
</defs>
</svg>
