<svg width="148" height="148" viewBox="0 0 148 148" fill="none" xmlns="http://www.w3.org/2000/svg">
<circle cx="74" cy="74" r="74" fill="#FFDB00"/>
<circle cx="74" cy="74" r="69" stroke="white" stroke-width="10"/>
<path fill-rule="evenodd" clip-rule="evenodd" d="M46.5514 87.5474L46.7249 101.946L59.2161 101.471L56.398 92.2115L46.5514 87.5474ZM53.7355 79.8852L62.6778 84.121L64.6767 85.0679L65.3207 87.1839L67.5141 94.3908L95.8927 66.0123L81.7505 51.8701L53.7355 79.8852ZM108.621 53.2843L102.964 58.9412L88.8216 44.7991L94.4784 39.1422L108.621 53.2843ZM64.78 111.267L46.8454 111.948L36.8492 112.328L36.7287 102.325L36.4957 82.9828L87.4074 32.0711L94.4784 25.0001L101.55 32.0711L115.692 46.2133L122.763 53.2843L115.692 60.3554L64.78 111.267Z" fill="white"/>
</svg>
