<svg width="148" height="148" viewBox="0 0 148 148" fill="none" xmlns="http://www.w3.org/2000/svg">
<circle cx="74" cy="74" r="74" fill="#16AB59"/>
<circle cx="74" cy="74" r="69" stroke="white" stroke-width="10"/>
<path d="M71.3495 48.9219L53.7565 79.6549V98.9999H46.6025V79.6549L28.9365 48.9219H37.1125L50.4715 72.2089H50.7635L63.9765 48.9219H71.3495Z" fill="white"/>
<path d="M98.8169 48.9219L118.381 98.9999H110.643L106.409 88.1229H82.4649L78.3039 98.9999H71.3689L90.9329 48.9219H98.8169ZM94.7289 57.5359H94.2909L85.0199 81.6259H103.927L94.7289 57.5359Z" fill="white"/>
<path fill-rule="evenodd" clip-rule="evenodd" d="M73.9372 47.4219L55.2571 80.0538V100.5H45.1031V80.0553L26.3447 47.4219H37.9819L50.6118 69.4378L63.1036 47.4219H73.9372ZM50.7641 72.2089H50.4721L37.1131 48.9219H28.9371L46.6031 79.6549V98.9999H53.7571V79.6549L71.3501 48.9219H63.9771L50.7641 72.2089ZM99.8419 47.4219L120.578 100.5H109.618L105.384 89.6229H83.4977L79.3367 100.5H69.1731L89.9091 47.4219H99.8419ZM82.4655 88.1229H106.41L110.644 98.9999H118.382L98.8175 48.9219H90.9335L71.3695 98.9999H78.3045L82.4655 88.1229ZM94.2915 57.5359H94.7295L103.928 81.6259H85.0205L94.2915 57.5359ZM94.5058 61.1553L87.205 80.1259H101.749L94.5058 61.1553Z" fill="white"/>
</svg>
